<svg xmlns="http://www.w3.org/2000/svg" width="160" height="97" viewBox="0 0 160 97" fill="none">
<g filter="url(#filter0_d_4909_16698)">
<path d="M83 15V18.5V22" stroke="white" stroke-dasharray="1 1"/>
<path d="M83 15V18.5V22" stroke="black" stroke-opacity="0.2" stroke-dasharray="1 1"/>
</g>
<g filter="url(#filter1_d_4909_16698)">
<path d="M101 33V36.5V40" stroke="white" stroke-dasharray="1 1"/>
<path d="M101 33V36.5V40" stroke="black" stroke-opacity="0.2" stroke-dasharray="1 1"/>
</g>
<g filter="url(#filter2_d_4909_16698)">
<path d="M88 45H91" stroke="#CCCCCC" stroke-miterlimit="16" stroke-dasharray="1 1"/>
</g>
<circle cx="34.5" cy="62.5" r="6.5" fill="black"/>
<circle cx="34.5" cy="62.5" r="6.5" fill="#DEDED9"/>
<circle cx="34.5" cy="62.5" r="2.5" fill="#DEDED9"/>
<circle cx="34.5" cy="62.5" r="4.5" fill="white"/>
<circle cx="34.5" cy="62.5" r="6.5" fill="black"/>
<circle cx="34.5" cy="62.5" r="6.5" fill="black"/>
<circle cx="34.5" cy="62.5" r="2.5" fill="#DEDED9"/>
<circle cx="34.5" cy="62.5" r="4.5" fill="#FEDF9C"/>
<circle cx="48.5" cy="48.5" r="6.5" fill="black"/>
<circle cx="48.5" cy="48.5" r="6.5" fill="black"/>
<circle cx="48.5" cy="48.5" r="2.5" fill="#DEDED9"/>
<circle cx="48.5" cy="48.5" r="4.5" fill="#FEDF9C"/>
<circle cx="48.5" cy="48.5" r="2.5" fill="#DEDED9"/>
<rect y="56" width="13" height="13" fill="black"/>
<rect y="56" width="13" height="13" fill="black"/>
<rect x="1" y="57" width="11" height="11" fill="#FEDF9C"/>
<rect x="3" y="59" width="7" height="7" fill="white"/>
<line x1="3.70711" y1="62.2929" x2="6.70711" y2="65.2929" stroke="black" stroke-width="2"/>
<line x1="6.29289" y1="64.2929" x2="10.2929" y2="60.2929" stroke="black" stroke-width="2"/>
<rect y="56" width="13" height="13" fill="black"/>
<rect y="56" width="13" height="13" fill="black"/>
<rect x="1" y="57" width="11" height="11" fill="#FEDF9C"/>
<rect x="3" y="59" width="7" height="7" fill="white"/>
<line x1="3.70711" y1="62.2929" x2="6.70711" y2="65.2929" stroke="black" stroke-width="2"/>
<line x1="6.29289" y1="64.2929" x2="10.2929" y2="60.2929" stroke="black" stroke-width="2"/>
<rect y="56" width="13" height="13" fill="black"/>
<rect y="56" width="13" height="13" fill="black"/>
<rect x="1" y="57" width="11" height="11" fill="#DEDED9"/>
<rect x="14" y="56" width="13" height="13" fill="black"/>
<rect x="14" y="56" width="13" height="13" fill="black"/>
<rect x="15" y="57" width="11" height="11" fill="#FEDF9C"/>
<rect x="17" y="59" width="7" height="7" fill="white"/>
<line x1="17.7071" y1="62.2929" x2="20.7071" y2="65.2929" stroke="black" stroke-width="2"/>
<line x1="20.2929" y1="64.2929" x2="24.2929" y2="60.2929" stroke="black" stroke-width="2"/>
<rect x="14" y="56" width="13" height="13" fill="black"/>
<rect x="14" y="56" width="13" height="13" fill="black"/>
<rect x="15" y="57" width="11" height="11" fill="#FEDF9C"/>
<rect x="17" y="59" width="7" height="7" fill="white"/>
<line x1="17.7071" y1="62.2929" x2="20.7071" y2="65.2929" stroke="black" stroke-width="2"/>
<line x1="20.2929" y1="64.2929" x2="24.2929" y2="60.2929" stroke="black" stroke-width="2"/>
<rect x="14" y="56" width="13" height="13" fill="black"/>
<rect x="14" y="56" width="13" height="13" fill="black"/>
<rect x="15" y="57" width="11" height="11" fill="#DEDED9"/>
<line x1="17.7071" y1="62.2929" x2="20.7071" y2="65.2929" stroke="black" stroke-width="2"/>
<line x1="20.2929" y1="64.2929" x2="24.2929" y2="60.2929" stroke="black" stroke-width="2"/>
<rect x="78" y="23" width="9" height="9" fill="black"/>
<rect x="79" y="24" width="7" height="7" fill="white"/>
<line x1="82.5" y1="25" x2="82.5" y2="30" stroke="black"/>
<line x1="80" y1="27.5" x2="85" y2="27.5" stroke="black"/>
<rect x="78" y="59" width="9" height="9" fill="black"/>
<rect x="79" y="60" width="7" height="7" fill="white"/>
<line x1="82.5" y1="61" x2="82.5" y2="66" stroke="black"/>
<line x1="80" y1="63.5" x2="85" y2="63.5" stroke="black"/>
<rect x="81" y="77" width="9" height="9" fill="black"/>
<rect x="82" y="78" width="7" height="7" fill="white"/>
<line x1="85.5" y1="79" x2="85.5" y2="84" stroke="black"/>
<line x1="83" y1="81.5" x2="88" y2="81.5" stroke="black"/>
<rect x="78" y="5" width="9" height="9" fill="black"/>
<rect x="79" y="6" width="7" height="7" fill="white"/>
<line x1="82.5" y1="7" x2="82.5" y2="12" stroke="black"/>
<line x1="80" y1="9.5" x2="85" y2="9.5" stroke="black"/>
<rect x="96" y="5" width="9" height="9" fill="black"/>
<rect x="97" y="6" width="7" height="7" fill="white"/>
<line x1="98" y1="9.5" x2="103" y2="9.5" stroke="black"/>
<rect x="78" y="23" width="9" height="9" fill="black"/>
<rect x="79" y="24" width="7" height="7" fill="white"/>
<line x1="82.5" y1="25" x2="82.5" y2="30" stroke="black"/>
<line x1="80" y1="27.5" x2="85" y2="27.5" stroke="black"/>
<rect x="78" y="41" width="9" height="9" fill="black"/>
<rect x="79" y="42" width="7" height="7" fill="white"/>
<line x1="82.5" y1="43" x2="82.5" y2="48" stroke="black"/>
<line x1="80" y1="45.5" x2="85" y2="45.5" stroke="black"/>
<rect x="96" y="41" width="9" height="9" fill="black"/>
<rect x="97" y="42" width="7" height="7" fill="white"/>
<line x1="98" y1="45.5" x2="103" y2="45.5" stroke="black"/>
<rect x="96" y="23" width="9" height="9" fill="black"/>
<rect x="97" y="24" width="7" height="7" fill="white"/>
<line x1="98" y1="27.5" x2="103" y2="27.5" stroke="black"/>
<rect x="99" y="77" width="9" height="9" fill="black"/>
<rect x="100" y="78" width="7" height="7" fill="white"/>
<line x1="101" y1="81.5" x2="106" y2="81.5" stroke="black"/>
<rect width="13" height="13" fill="black"/>
<path d="M1 1H12V12H1V1Z" fill="white"/>
<rect y="14" width="13" height="13" fill="black"/>
<rect y="14" width="13" height="13" fill="black"/>
<rect x="1" y="15" width="11" height="11" fill="#FEDF9C"/>
<rect x="3" y="17" width="7" height="7" fill="white"/>
<rect y="14" width="13" height="13" fill="black"/>
<rect y="14" width="13" height="13" fill="black"/>
<rect x="1" y="15" width="11" height="11" fill="#FEDF9C"/>
<rect x="3" y="17" width="7" height="7" fill="white"/>
<rect x="14" y="14" width="13" height="13" fill="black"/>
<rect x="14" y="14" width="13" height="13" fill="black"/>
<rect x="15" y="15" width="11" height="11" fill="#FEDF9C"/>
<rect x="17" y="17" width="7" height="7" fill="white"/>
<line x1="17.7071" y1="20.2929" x2="20.7071" y2="23.2929" stroke="black" stroke-width="2"/>
<line x1="20.2929" y1="22.2929" x2="24.2929" y2="18.2929" stroke="black" stroke-width="2"/>
<rect x="14" y="14" width="13" height="13" fill="black"/>
<rect x="14" y="14" width="13" height="13" fill="black"/>
<rect x="15" y="15" width="11" height="11" fill="#FEDF9C"/>
<rect x="17" y="17" width="7" height="7" fill="white"/>
<line x1="17.7071" y1="20.2929" x2="20.7071" y2="23.2929" stroke="black" stroke-width="2"/>
<line x1="20.2929" y1="22.2929" x2="24.2929" y2="18.2929" stroke="black" stroke-width="2"/>
<rect x="14" y="14" width="13" height="13" fill="black"/>
<rect x="14" y="14" width="13" height="13" fill="black"/>
<rect x="15" y="15" width="11" height="11" fill="#FEDF9C"/>
<rect x="17" y="17" width="7" height="7" fill="white"/>
<line x1="17.7071" y1="20.2929" x2="20.7071" y2="23.2929" stroke="black" stroke-width="2"/>
<line x1="20.2929" y1="22.2929" x2="24.2929" y2="18.2929" stroke="black" stroke-width="2"/>
<rect x="14" y="42" width="13" height="13" fill="black"/>
<rect x="14" y="42" width="13" height="13" fill="black"/>
<rect x="15" y="43" width="11" height="11" fill="#FEDF9C"/>
<rect x="17" y="45" width="7" height="7" fill="white"/>
<line x1="17.7071" y1="48.2929" x2="20.7071" y2="51.2929" stroke="black" stroke-width="2"/>
<line x1="20.2929" y1="50.2929" x2="24.2929" y2="46.2929" stroke="black" stroke-width="2"/>
<rect x="14" y="42" width="13" height="13" fill="black"/>
<rect x="14" y="42" width="13" height="13" fill="black"/>
<rect x="15" y="43" width="11" height="11" fill="#FEDF9C"/>
<rect x="17" y="45" width="7" height="7" fill="white"/>
<line x1="17.7071" y1="48.2929" x2="20.7071" y2="51.2929" stroke="black" stroke-width="2"/>
<line x1="20.2929" y1="50.2929" x2="24.2929" y2="46.2929" stroke="black" stroke-width="2"/>
<rect x="14" y="42" width="13" height="13" fill="black"/>
<rect x="14" y="42" width="13" height="13" fill="black"/>
<rect x="15" y="43" width="11" height="11" fill="#FEDF9C"/>
<path d="M17 45H24V52H17V45Z" fill="#DEDED9"/>
<line x1="17.7071" y1="48.2929" x2="20.7071" y2="51.2929" stroke="black" stroke-width="2"/>
<line x1="20.2929" y1="50.2929" x2="24.2929" y2="46.2929" stroke="black" stroke-width="2"/>
<rect y="42" width="13" height="13" fill="black"/>
<rect y="42" width="13" height="13" fill="black"/>
<rect x="1" y="43" width="11" height="11" fill="#FEDF9C"/>
<rect x="3" y="45" width="7" height="7" fill="white"/>
<line x1="3.70711" y1="48.2929" x2="6.70711" y2="51.2929" stroke="black" stroke-width="2"/>
<line x1="6.29289" y1="50.2929" x2="10.2929" y2="46.2929" stroke="black" stroke-width="2"/>
<rect y="42" width="13" height="13" fill="black"/>
<rect y="42" width="13" height="13" fill="black"/>
<rect x="1" y="43" width="11" height="11" fill="#FEDF9C"/>
<rect x="3" y="45" width="7" height="7" fill="white"/>
<line x1="3.70711" y1="48.2929" x2="6.70711" y2="51.2929" stroke="black" stroke-width="2"/>
<line x1="6.29289" y1="50.2929" x2="10.2929" y2="46.2929" stroke="black" stroke-width="2"/>
<rect y="42" width="13" height="13" fill="black"/>
<rect y="42" width="13" height="13" fill="black"/>
<rect x="1" y="43" width="11" height="11" fill="#FEDF9C"/>
<rect x="3" y="45" width="7" height="7" fill="#DEDED9"/>
<rect y="42" width="13" height="13" fill="black"/>
<rect y="42" width="13" height="13" fill="black"/>
<rect x="1" y="43" width="11" height="11" fill="#FEDF9C"/>
<rect x="3" y="45" width="7" height="7" fill="white"/>
<line x1="3.70711" y1="48.2929" x2="6.70711" y2="51.2929" stroke="black" stroke-width="2"/>
<line x1="6.29289" y1="50.2929" x2="10.2929" y2="46.2929" stroke="black" stroke-width="2"/>
<rect y="42" width="13" height="13" fill="black"/>
<rect y="42" width="13" height="13" fill="black"/>
<rect x="1" y="43" width="11" height="11" fill="#FEDF9C"/>
<rect x="3" y="45" width="7" height="7" fill="white"/>
<line x1="3.70711" y1="48.2929" x2="6.70711" y2="51.2929" stroke="black" stroke-width="2"/>
<line x1="6.29289" y1="50.2929" x2="10.2929" y2="46.2929" stroke="black" stroke-width="2"/>
<rect y="42" width="13" height="13" fill="black"/>
<rect y="42" width="13" height="13" fill="black"/>
<rect x="1" y="43" width="11" height="11" fill="#FEDF9C"/>
<rect x="3" y="45" width="7" height="7" fill="#DEDED9"/>
<rect x="14" width="13" height="13" fill="black"/>
<rect x="15" y="1" width="11" height="11" fill="white"/>
<line x1="17.7071" y1="6.29289" x2="20.7071" y2="9.29289" stroke="black" stroke-width="2"/>
<line x1="20.2929" y1="8.29289" x2="24.2929" y2="4.29289" stroke="black" stroke-width="2"/>
<rect x="14" y="28" width="13" height="13" fill="black"/>
<rect x="14" y="28" width="13" height="13" fill="black"/>
<rect x="15" y="29" width="11" height="11" fill="#DEDED9"/>
<line x1="17.7071" y1="34.2929" x2="20.7071" y2="37.2929" stroke="black" stroke-width="2"/>
<line x1="20.2929" y1="36.2929" x2="24.2929" y2="32.2929" stroke="black" stroke-width="2"/>
<rect y="14" width="13" height="13" fill="black"/>
<rect y="14" width="13" height="13" fill="black"/>
<rect x="1" y="15" width="11" height="11" fill="#FEDF9C"/>
<rect x="3" y="17" width="7" height="7" fill="white"/>
<circle cx="34.5" cy="6.5" r="6.5" fill="black"/>
<circle cx="34.5" cy="6.5" r="6.5" fill="black"/>
<circle cx="34.5" cy="6.5" r="4.5" fill="white"/>
<circle cx="48.5" cy="6.5" r="6.5" fill="black"/>
<circle cx="48.5" cy="6.5" r="4.5" fill="white"/>
<circle cx="48.5" cy="6.5" r="2.5" fill="black"/>
<circle cx="48.5" cy="6.5" r="6.5" fill="black"/>
<circle cx="48.5" cy="6.5" r="4.5" fill="white"/>
<circle cx="48.5" cy="6.5" r="2.5" fill="black"/>
<circle cx="48.5" cy="20.5" r="6.5" fill="black"/>
<circle cx="48.5" cy="20.5" r="4.5" fill="#FEDF9C"/>
<circle cx="48.5" cy="20.5" r="2.5" fill="black"/>
<circle cx="48.5" cy="34.5" r="6.5" fill="black"/>
<circle cx="48.5" cy="34.5" r="4.5" fill="#DEDED9"/>
<circle cx="48.5" cy="34.5" r="2.5" fill="black"/>
<circle cx="48.5" cy="48.5" r="6.5" fill="black"/>
<circle cx="48.5" cy="48.5" r="6.5" fill="black"/>
<circle cx="48.5" cy="48.5" r="2.5" fill="#DEDED9"/>
<circle cx="48.5" cy="48.5" r="4.5" fill="#FEDF9C"/>
<circle cx="48.5" cy="48.5" r="2.5" fill="#DEDED9"/>
<circle cx="48.5" cy="62.5" r="6.5" fill="black"/>
<circle cx="48.5" cy="62.5" r="6.5" fill="#DEDED9"/>
<circle cx="48.5" cy="62.5" r="2.5" fill="#DEDED9"/>
<circle cx="48.5" cy="62.5" r="4.5" fill="white"/>
<circle cx="48.5" cy="62.5" r="6.5" fill="black"/>
<circle cx="48.5" cy="62.5" r="6.5" fill="black"/>
<circle cx="48.5" cy="62.5" r="2.5" fill="#DEDED9"/>
<circle cx="48.5" cy="62.5" r="4.5" fill="#FEDF9C"/>
<circle cx="48.5" cy="62.5" r="2.5" fill="#DEDED9"/>
<circle cx="48.5" cy="62.5" r="2.5" fill="#DEDED9"/>
<circle cx="34.5" cy="48.5" r="6.5" fill="black"/>
<circle cx="34.5" cy="48.5" r="6.5" fill="black"/>
<circle cx="34.5" cy="48.5" r="2.5" fill="#DEDED9"/>
<circle cx="34.5" cy="48.5" r="4.5" fill="#FEDF9C"/>
<circle cx="34.5" cy="34.5" r="6.5" fill="black"/>
<circle cx="34.5" cy="34.5" r="4.5" fill="#DEDED9"/>
<circle cx="34.5" cy="20.5" r="6.5" fill="black"/>
<circle cx="34.5" cy="20.5" r="4.5" fill="#FEDF9C"/>
<path d="M112.5 18.5H119.044L120.394 20.3L120.544 20.5H120.794H124.794V29H112.5L112.5 18.5Z" fill="#FEFAB4" stroke="#CDA747"/>
<path d="M112.5 2.5H119.044L120.394 4.30001L120.544 4.5H120.794H124.794V13H112.5L112.5 2.5Z" fill="#FEFAB4" stroke="#CDA747"/>
<g filter="url(#filter3_d_4909_16698)">
<path d="M64.5 9V45" stroke="white" stroke-dasharray="1 1"/>
<path d="M64.5 9V45" stroke="black" stroke-opacity="0.2" stroke-dasharray="1 1"/>
</g>
<g filter="url(#filter4_d_4909_16698)">
<path d="M101 15V18.5V22" stroke="white" stroke-dasharray="1 1"/>
<path d="M101 15V18.5V22" stroke="black" stroke-opacity="0.2" stroke-dasharray="1 1"/>
</g>
<g filter="url(#filter5_d_4909_16698)">
<path d="M64 9.5H73.5" stroke="#CCCCCC" stroke-miterlimit="16" stroke-dasharray="1 1"/>
</g>
<g filter="url(#filter6_d_4909_16698)">
<path d="M64.5 27H74" stroke="#CCCCCC" stroke-miterlimit="16" stroke-dasharray="1 1"/>
</g>
<g filter="url(#filter7_d_4909_16698)">
<path d="M64 45H68.5H73.5" stroke="#CCCCCC" stroke-miterlimit="16" stroke-dasharray="1 1"/>
</g>
<path d="M122.318 23L124.399 29H112.542L110.679 23H122.318Z" fill="#FEFAB4" stroke="#CDA747"/>
<path d="M122.758 46H112.5L112.5 33.5H119.983L122.758 35.2738V46Z" fill="#EDF6FF" stroke="#7F8EBC"/>
<g filter="url(#filter8_d_4909_16698)">
<path d="M88 27H91" stroke="#CCCCCC" stroke-miterlimit="16" stroke-dasharray="1 1"/>
</g>
<g filter="url(#filter9_d_4909_16698)">
<path d="M88 9H89.5H91" stroke="#CCCCCC" stroke-miterlimit="16" stroke-dasharray="1 1"/>
</g>
<g filter="url(#filter10_d_4909_16698)">
<path d="M88 63H91" stroke="#CCCCCC" stroke-miterlimit="16" stroke-dasharray="1 1"/>
</g>
<rect x="96" y="59" width="9" height="9" fill="black"/>
<rect x="97" y="60" width="7" height="7" fill="white"/>
<line x1="98" y1="63.5" x2="103" y2="63.5" stroke="black"/>
<g filter="url(#filter11_d_4909_16698)">
<path d="M106 63H109" stroke="#CCCCCC" stroke-miterlimit="16" stroke-dasharray="1 1"/>
</g>
<g filter="url(#filter12_d_4909_16698)">
<path d="M106 45H109" stroke="#CCCCCC" stroke-miterlimit="16" stroke-dasharray="1 1"/>
</g>
<g filter="url(#filter13_d_4909_16698)">
<path d="M106 27H109" stroke="#CCCCCC" stroke-miterlimit="16" stroke-dasharray="1 1"/>
</g>
<g filter="url(#filter14_d_4909_16698)">
<path d="M106 9H109" stroke="#CCCCCC" stroke-miterlimit="16" stroke-dasharray="1 1"/>
</g>
<g filter="url(#filter15_d_4909_16698)">
<path d="M83 33V36.5V40" stroke="white" stroke-dasharray="1 1"/>
<path d="M83 33V36.5V40" stroke="black" stroke-opacity="0.2" stroke-dasharray="1 1"/>
</g>
<rect y="28" width="13" height="13" fill="black"/>
<rect y="28" width="13" height="13" fill="black"/>
<rect x="1" y="29" width="11" height="11" fill="#DEDED9"/>
<defs>
<filter id="filter0_d_4909_16698" x="78.5" y="15" width="9" height="15" filterUnits="userSpaceOnUse" color-interpolation-filters="sRGB">
<feFlood flood-opacity="0" result="BackgroundImageFix"/>
<feColorMatrix in="SourceAlpha" type="matrix" values="0 0 0 0 0 0 0 0 0 0 0 0 0 0 0 0 0 0 127 0" result="hardAlpha"/>
<feOffset dy="4"/>
<feGaussianBlur stdDeviation="2"/>
<feComposite in2="hardAlpha" operator="out"/>
<feColorMatrix type="matrix" values="0 0 0 0 0 0 0 0 0 0 0 0 0 0 0 0 0 0 0.25 0"/>
<feBlend mode="normal" in2="BackgroundImageFix" result="effect1_dropShadow_4909_16698"/>
<feBlend mode="normal" in="SourceGraphic" in2="effect1_dropShadow_4909_16698" result="shape"/>
</filter>
<filter id="filter1_d_4909_16698" x="96.5" y="33" width="9" height="15" filterUnits="userSpaceOnUse" color-interpolation-filters="sRGB">
<feFlood flood-opacity="0" result="BackgroundImageFix"/>
<feColorMatrix in="SourceAlpha" type="matrix" values="0 0 0 0 0 0 0 0 0 0 0 0 0 0 0 0 0 0 127 0" result="hardAlpha"/>
<feOffset dy="4"/>
<feGaussianBlur stdDeviation="2"/>
<feComposite in2="hardAlpha" operator="out"/>
<feColorMatrix type="matrix" values="0 0 0 0 0 0 0 0 0 0 0 0 0 0 0 0 0 0 0.25 0"/>
<feBlend mode="normal" in2="BackgroundImageFix" result="effect1_dropShadow_4909_16698"/>
<feBlend mode="normal" in="SourceGraphic" in2="effect1_dropShadow_4909_16698" result="shape"/>
</filter>
<filter id="filter2_d_4909_16698" x="84" y="44.5" width="11" height="9" filterUnits="userSpaceOnUse" color-interpolation-filters="sRGB">
<feFlood flood-opacity="0" result="BackgroundImageFix"/>
<feColorMatrix in="SourceAlpha" type="matrix" values="0 0 0 0 0 0 0 0 0 0 0 0 0 0 0 0 0 0 127 0" result="hardAlpha"/>
<feOffset dy="4"/>
<feGaussianBlur stdDeviation="2"/>
<feComposite in2="hardAlpha" operator="out"/>
<feColorMatrix type="matrix" values="0 0 0 0 0 0 0 0 0 0 0 0 0 0 0 0 0 0 0.25 0"/>
<feBlend mode="normal" in2="BackgroundImageFix" result="effect1_dropShadow_4909_16698"/>
<feBlend mode="normal" in="SourceGraphic" in2="effect1_dropShadow_4909_16698" result="shape"/>
</filter>
<filter id="filter3_d_4909_16698" x="60" y="9" width="9" height="44" filterUnits="userSpaceOnUse" color-interpolation-filters="sRGB">
<feFlood flood-opacity="0" result="BackgroundImageFix"/>
<feColorMatrix in="SourceAlpha" type="matrix" values="0 0 0 0 0 0 0 0 0 0 0 0 0 0 0 0 0 0 127 0" result="hardAlpha"/>
<feOffset dy="4"/>
<feGaussianBlur stdDeviation="2"/>
<feComposite in2="hardAlpha" operator="out"/>
<feColorMatrix type="matrix" values="0 0 0 0 0 0 0 0 0 0 0 0 0 0 0 0 0 0 0.25 0"/>
<feBlend mode="normal" in2="BackgroundImageFix" result="effect1_dropShadow_4909_16698"/>
<feBlend mode="normal" in="SourceGraphic" in2="effect1_dropShadow_4909_16698" result="shape"/>
</filter>
<filter id="filter4_d_4909_16698" x="96.5" y="15" width="9" height="15" filterUnits="userSpaceOnUse" color-interpolation-filters="sRGB">
<feFlood flood-opacity="0" result="BackgroundImageFix"/>
<feColorMatrix in="SourceAlpha" type="matrix" values="0 0 0 0 0 0 0 0 0 0 0 0 0 0 0 0 0 0 127 0" result="hardAlpha"/>
<feOffset dy="4"/>
<feGaussianBlur stdDeviation="2"/>
<feComposite in2="hardAlpha" operator="out"/>
<feColorMatrix type="matrix" values="0 0 0 0 0 0 0 0 0 0 0 0 0 0 0 0 0 0 0.25 0"/>
<feBlend mode="normal" in2="BackgroundImageFix" result="effect1_dropShadow_4909_16698"/>
<feBlend mode="normal" in="SourceGraphic" in2="effect1_dropShadow_4909_16698" result="shape"/>
</filter>
<filter id="filter5_d_4909_16698" x="60" y="9" width="17.5" height="9" filterUnits="userSpaceOnUse" color-interpolation-filters="sRGB">
<feFlood flood-opacity="0" result="BackgroundImageFix"/>
<feColorMatrix in="SourceAlpha" type="matrix" values="0 0 0 0 0 0 0 0 0 0 0 0 0 0 0 0 0 0 127 0" result="hardAlpha"/>
<feOffset dy="4"/>
<feGaussianBlur stdDeviation="2"/>
<feComposite in2="hardAlpha" operator="out"/>
<feColorMatrix type="matrix" values="0 0 0 0 0 0 0 0 0 0 0 0 0 0 0 0 0 0 0.25 0"/>
<feBlend mode="normal" in2="BackgroundImageFix" result="effect1_dropShadow_4909_16698"/>
<feBlend mode="normal" in="SourceGraphic" in2="effect1_dropShadow_4909_16698" result="shape"/>
</filter>
<filter id="filter6_d_4909_16698" x="60.5" y="26.5" width="17.5" height="9" filterUnits="userSpaceOnUse" color-interpolation-filters="sRGB">
<feFlood flood-opacity="0" result="BackgroundImageFix"/>
<feColorMatrix in="SourceAlpha" type="matrix" values="0 0 0 0 0 0 0 0 0 0 0 0 0 0 0 0 0 0 127 0" result="hardAlpha"/>
<feOffset dy="4"/>
<feGaussianBlur stdDeviation="2"/>
<feComposite in2="hardAlpha" operator="out"/>
<feColorMatrix type="matrix" values="0 0 0 0 0 0 0 0 0 0 0 0 0 0 0 0 0 0 0.25 0"/>
<feBlend mode="normal" in2="BackgroundImageFix" result="effect1_dropShadow_4909_16698"/>
<feBlend mode="normal" in="SourceGraphic" in2="effect1_dropShadow_4909_16698" result="shape"/>
</filter>
<filter id="filter7_d_4909_16698" x="60" y="44.5" width="17.5" height="9" filterUnits="userSpaceOnUse" color-interpolation-filters="sRGB">
<feFlood flood-opacity="0" result="BackgroundImageFix"/>
<feColorMatrix in="SourceAlpha" type="matrix" values="0 0 0 0 0 0 0 0 0 0 0 0 0 0 0 0 0 0 127 0" result="hardAlpha"/>
<feOffset dy="4"/>
<feGaussianBlur stdDeviation="2"/>
<feComposite in2="hardAlpha" operator="out"/>
<feColorMatrix type="matrix" values="0 0 0 0 0 0 0 0 0 0 0 0 0 0 0 0 0 0 0.25 0"/>
<feBlend mode="normal" in2="BackgroundImageFix" result="effect1_dropShadow_4909_16698"/>
<feBlend mode="normal" in="SourceGraphic" in2="effect1_dropShadow_4909_16698" result="shape"/>
</filter>
<filter id="filter8_d_4909_16698" x="84" y="26.5" width="11" height="9" filterUnits="userSpaceOnUse" color-interpolation-filters="sRGB">
<feFlood flood-opacity="0" result="BackgroundImageFix"/>
<feColorMatrix in="SourceAlpha" type="matrix" values="0 0 0 0 0 0 0 0 0 0 0 0 0 0 0 0 0 0 127 0" result="hardAlpha"/>
<feOffset dy="4"/>
<feGaussianBlur stdDeviation="2"/>
<feComposite in2="hardAlpha" operator="out"/>
<feColorMatrix type="matrix" values="0 0 0 0 0 0 0 0 0 0 0 0 0 0 0 0 0 0 0.25 0"/>
<feBlend mode="normal" in2="BackgroundImageFix" result="effect1_dropShadow_4909_16698"/>
<feBlend mode="normal" in="SourceGraphic" in2="effect1_dropShadow_4909_16698" result="shape"/>
</filter>
<filter id="filter9_d_4909_16698" x="84" y="8.5" width="11" height="9" filterUnits="userSpaceOnUse" color-interpolation-filters="sRGB">
<feFlood flood-opacity="0" result="BackgroundImageFix"/>
<feColorMatrix in="SourceAlpha" type="matrix" values="0 0 0 0 0 0 0 0 0 0 0 0 0 0 0 0 0 0 127 0" result="hardAlpha"/>
<feOffset dy="4"/>
<feGaussianBlur stdDeviation="2"/>
<feComposite in2="hardAlpha" operator="out"/>
<feColorMatrix type="matrix" values="0 0 0 0 0 0 0 0 0 0 0 0 0 0 0 0 0 0 0.25 0"/>
<feBlend mode="normal" in2="BackgroundImageFix" result="effect1_dropShadow_4909_16698"/>
<feBlend mode="normal" in="SourceGraphic" in2="effect1_dropShadow_4909_16698" result="shape"/>
</filter>
<filter id="filter10_d_4909_16698" x="84" y="62.5" width="11" height="9" filterUnits="userSpaceOnUse" color-interpolation-filters="sRGB">
<feFlood flood-opacity="0" result="BackgroundImageFix"/>
<feColorMatrix in="SourceAlpha" type="matrix" values="0 0 0 0 0 0 0 0 0 0 0 0 0 0 0 0 0 0 127 0" result="hardAlpha"/>
<feOffset dy="4"/>
<feGaussianBlur stdDeviation="2"/>
<feComposite in2="hardAlpha" operator="out"/>
<feColorMatrix type="matrix" values="0 0 0 0 0 0 0 0 0 0 0 0 0 0 0 0 0 0 0.25 0"/>
<feBlend mode="normal" in2="BackgroundImageFix" result="effect1_dropShadow_4909_16698"/>
<feBlend mode="normal" in="SourceGraphic" in2="effect1_dropShadow_4909_16698" result="shape"/>
</filter>
<filter id="filter11_d_4909_16698" x="102" y="62.5" width="11" height="9" filterUnits="userSpaceOnUse" color-interpolation-filters="sRGB">
<feFlood flood-opacity="0" result="BackgroundImageFix"/>
<feColorMatrix in="SourceAlpha" type="matrix" values="0 0 0 0 0 0 0 0 0 0 0 0 0 0 0 0 0 0 127 0" result="hardAlpha"/>
<feOffset dy="4"/>
<feGaussianBlur stdDeviation="2"/>
<feComposite in2="hardAlpha" operator="out"/>
<feColorMatrix type="matrix" values="0 0 0 0 0 0 0 0 0 0 0 0 0 0 0 0 0 0 0.25 0"/>
<feBlend mode="normal" in2="BackgroundImageFix" result="effect1_dropShadow_4909_16698"/>
<feBlend mode="normal" in="SourceGraphic" in2="effect1_dropShadow_4909_16698" result="shape"/>
</filter>
<filter id="filter12_d_4909_16698" x="102" y="44.5" width="11" height="9" filterUnits="userSpaceOnUse" color-interpolation-filters="sRGB">
<feFlood flood-opacity="0" result="BackgroundImageFix"/>
<feColorMatrix in="SourceAlpha" type="matrix" values="0 0 0 0 0 0 0 0 0 0 0 0 0 0 0 0 0 0 127 0" result="hardAlpha"/>
<feOffset dy="4"/>
<feGaussianBlur stdDeviation="2"/>
<feComposite in2="hardAlpha" operator="out"/>
<feColorMatrix type="matrix" values="0 0 0 0 0 0 0 0 0 0 0 0 0 0 0 0 0 0 0.25 0"/>
<feBlend mode="normal" in2="BackgroundImageFix" result="effect1_dropShadow_4909_16698"/>
<feBlend mode="normal" in="SourceGraphic" in2="effect1_dropShadow_4909_16698" result="shape"/>
</filter>
<filter id="filter13_d_4909_16698" x="102" y="26.5" width="11" height="9" filterUnits="userSpaceOnUse" color-interpolation-filters="sRGB">
<feFlood flood-opacity="0" result="BackgroundImageFix"/>
<feColorMatrix in="SourceAlpha" type="matrix" values="0 0 0 0 0 0 0 0 0 0 0 0 0 0 0 0 0 0 127 0" result="hardAlpha"/>
<feOffset dy="4"/>
<feGaussianBlur stdDeviation="2"/>
<feComposite in2="hardAlpha" operator="out"/>
<feColorMatrix type="matrix" values="0 0 0 0 0 0 0 0 0 0 0 0 0 0 0 0 0 0 0.25 0"/>
<feBlend mode="normal" in2="BackgroundImageFix" result="effect1_dropShadow_4909_16698"/>
<feBlend mode="normal" in="SourceGraphic" in2="effect1_dropShadow_4909_16698" result="shape"/>
</filter>
<filter id="filter14_d_4909_16698" x="102" y="8.5" width="11" height="9" filterUnits="userSpaceOnUse" color-interpolation-filters="sRGB">
<feFlood flood-opacity="0" result="BackgroundImageFix"/>
<feColorMatrix in="SourceAlpha" type="matrix" values="0 0 0 0 0 0 0 0 0 0 0 0 0 0 0 0 0 0 127 0" result="hardAlpha"/>
<feOffset dy="4"/>
<feGaussianBlur stdDeviation="2"/>
<feComposite in2="hardAlpha" operator="out"/>
<feColorMatrix type="matrix" values="0 0 0 0 0 0 0 0 0 0 0 0 0 0 0 0 0 0 0.25 0"/>
<feBlend mode="normal" in2="BackgroundImageFix" result="effect1_dropShadow_4909_16698"/>
<feBlend mode="normal" in="SourceGraphic" in2="effect1_dropShadow_4909_16698" result="shape"/>
</filter>
<filter id="filter15_d_4909_16698" x="78.5" y="33" width="9" height="15" filterUnits="userSpaceOnUse" color-interpolation-filters="sRGB">
<feFlood flood-opacity="0" result="BackgroundImageFix"/>
<feColorMatrix in="SourceAlpha" type="matrix" values="0 0 0 0 0 0 0 0 0 0 0 0 0 0 0 0 0 0 127 0" result="hardAlpha"/>
<feOffset dy="4"/>
<feGaussianBlur stdDeviation="2"/>
<feComposite in2="hardAlpha" operator="out"/>
<feColorMatrix type="matrix" values="0 0 0 0 0 0 0 0 0 0 0 0 0 0 0 0 0 0 0.25 0"/>
<feBlend mode="normal" in2="BackgroundImageFix" result="effect1_dropShadow_4909_16698"/>
<feBlend mode="normal" in="SourceGraphic" in2="effect1_dropShadow_4909_16698" result="shape"/>
</filter>
</defs>
</svg>